<svg width="88" height="88" viewBox="0 0 88 88" fill="none" xmlns="http://www.w3.org/2000/svg">
<circle cx="44" cy="44" r="44" fill="#0096D1" fill-opacity="0.1"/>
<g clip-path="url(#clip0_102_517)">
<path d="M25.0682 19.4639C24.4474 19.4758 23.6519 20.2445 23.6791 20.8078C23.6915 21.0631 23.8007 21.3042 23.9843 21.4819C24.168 21.6597 24.4124 21.7608 24.6679 21.7648C25.3311 21.7648 26.0826 21.0742 26.0758 20.4684C26.0722 20.2025 25.9648 19.9486 25.7766 19.7609C25.5883 19.5731 25.334 19.4666 25.0682 19.4639ZM55.4739 22.7693C55.1991 22.223 54.6258 22.0685 54.0084 22.3757C53.7048 22.525 53.4096 22.6947 53.1043 22.8389C49.7714 24.4271 46.2569 25.3145 42.5422 25.1126C39.2323 24.917 36.0068 23.9898 33.0979 22.3977C32.4398 22.0465 31.8479 22.1907 31.5714 22.7371C31.2949 23.2835 31.5001 23.7993 32.1311 24.1454C35.6693 26.0832 39.462 27.0741 43.8347 27.1997C44.5437 27.1301 45.6021 27.0657 46.6487 26.9163C49.5657 26.4969 52.382 25.5499 54.96 24.1217C55.5536 23.8146 55.7385 23.2886 55.4739 22.7693ZM59.2225 56.5359C58.678 59.2627 58.1488 61.8962 57.6246 64.5313C57.2091 66.6201 55.674 68.0013 53.7031 68.0556C51.7321 68.1099 50.1004 66.8305 49.5899 64.7723C48.8656 61.8554 48.1617 58.9318 47.4357 56.0133C46.9608 54.1027 45.4003 52.8386 43.5057 52.8097C41.611 52.7809 40.0251 54.0314 39.5112 55.9268C39.2839 56.7633 39.0871 57.61 38.8887 58.455C38.7191 59.149 38.9989 59.6632 39.579 59.8125C40.1591 59.9618 40.6578 59.6428 40.841 58.9641C41.0649 58.1259 41.2548 57.2791 41.4754 56.4392C41.5508 56.0951 41.7162 55.7772 41.9546 55.5178C42.193 55.2585 42.4958 55.067 42.8323 54.963C44.0535 54.5608 45.1594 55.2684 45.5089 56.6802C46.2297 59.5987 46.9065 62.5291 47.6664 65.4374C48.4127 68.2949 50.8705 70.0918 53.7726 70.0069C56.5866 69.9238 58.9188 67.9708 59.5312 65.1439C59.9365 63.2774 60.3029 61.4109 60.6846 59.5444C60.8542 58.6841 61.0357 57.8221 61.2188 56.9211L59.2225 56.5359ZM70.9736 36.3727C70.575 36.3506 70.173 36.3727 69.7133 36.3727C69.7964 35.5124 69.9135 34.7353 69.9355 33.9547C69.9508 33.1708 69.9202 32.3867 69.8439 31.6063C69.2842 25.3078 64.6333 19.6336 58.5711 17.7875C55.1641 16.73 51.507 16.8002 48.143 17.9877C46.1941 18.6512 44.1841 18.9888 42.1352 18.6664C40.6949 18.4266 39.2695 18.1048 37.8659 17.7026C34.845 16.839 31.8207 16.7117 28.7896 17.6636C28.0162 17.9063 27.6854 18.3678 27.8534 18.9939C28.023 19.5946 28.5691 19.766 29.3579 19.6268C30.686 19.391 32.0378 19.0465 33.3659 19.1042C34.9928 19.1899 36.6042 19.4643 38.1678 19.9221C41.9723 21.0063 45.6988 21.0895 49.4643 19.7286C51.6083 18.9532 53.854 18.9006 56.1167 19.2841C63.8276 20.5923 69.101 28.0821 67.7169 35.7567C67.6219 36.2878 67.4201 36.3778 66.9401 36.3761C62.742 36.3591 58.5423 36.3659 54.3425 36.3642C54.1373 36.3642 53.9338 36.3455 53.681 36.3337C53.681 35.6821 53.681 35.0712 53.681 34.4672C53.6624 32.0068 51.9238 30.2692 49.4576 30.2659C45.4919 30.2568 41.5262 30.2568 37.5606 30.2659C35.0621 30.2659 33.3354 32.0102 33.3201 34.5164C33.3201 35.1238 33.3201 35.7296 33.3201 36.3133C33.2539 36.3364 33.1858 36.354 33.1166 36.3659C28.685 36.3659 24.2529 36.371 19.8203 36.3812C19.4539 36.3812 19.364 36.2268 19.3114 35.9061C18.5702 31.5266 19.6354 27.6324 22.4256 24.198C22.8988 23.6143 22.8734 23.0103 22.3849 22.6319C21.8964 22.2535 21.3536 22.3366 20.8872 22.8966C18.1133 26.2054 16.8406 30.0255 17.0691 34.3569C17.103 35.0068 17.2115 35.6532 17.2947 36.3659C16.9215 36.3659 16.5857 36.3659 16.2498 36.3659C15.456 36.3761 14.9879 36.7647 14.9997 37.401C15.0116 38.0373 15.4611 38.3902 16.221 38.4021C16.6445 38.3848 17.0686 38.3905 17.4914 38.419C17.5917 38.436 17.687 38.4753 17.7701 38.534C17.8532 38.5928 17.922 38.6695 17.9714 38.7584C18.6669 40.7742 19.8372 42.5101 21.128 44.1712C23.0277 46.6147 24.1811 49.3805 24.7968 52.394C25.6772 56.6886 26.5439 60.9884 27.4717 65.2728C28.0416 67.9046 30.4044 69.8322 33.0589 69.9543C35.8169 70.0816 38.2764 68.4442 39.138 65.8548C39.4315 64.9725 39.6265 64.0579 39.8402 63.1501C39.9997 62.4714 39.691 61.942 39.116 61.8181C38.541 61.6942 38.0592 62.0132 37.8761 62.7022C37.681 63.4403 37.5283 64.1886 37.3028 64.9165C36.7057 66.8407 35.0977 67.9928 33.1624 67.9216C31.3068 67.8537 29.77 66.537 29.3613 64.5805C28.5403 60.705 27.7007 56.8329 26.9629 52.9421C26.2301 49.0886 24.9139 45.5202 22.3832 42.4592C21.9659 41.9506 21.5893 41.4099 21.2569 40.8421C20.8108 40.0853 20.4275 39.2912 19.9814 38.4462H33.3184C33.3184 39.1113 33.3184 39.7256 33.3184 40.3398C33.3405 42.7256 35.0791 44.4919 37.4537 44.5004C41.4838 44.5151 45.5134 44.5151 49.5424 44.5004C51.917 44.4919 53.6539 42.7256 53.6776 40.3398C53.6776 39.7103 53.6776 39.0791 53.6776 38.4275H66.9587C66.7891 38.8263 66.6788 39.1996 66.477 39.5101C65.5678 40.9117 64.679 42.3319 63.6953 43.6826C61.7667 46.3313 60.7677 49.3448 60.1011 52.506C60.0583 52.7586 60.1112 53.0181 60.2495 53.2338C60.3877 53.4495 60.6014 53.6059 60.8487 53.6725C61.096 53.739 61.3593 53.711 61.587 53.5938C61.8148 53.4767 61.9908 53.2788 62.0805 53.0388C62.1398 52.8801 62.1852 52.7166 62.2162 52.5501C62.9048 49.3856 64.0447 46.4297 66.1293 43.8964C67.3984 42.3811 68.3916 40.6547 69.0637 38.7957C69.1187 38.6985 69.1947 38.6147 69.2863 38.5507C69.3779 38.4867 69.4826 38.444 69.5929 38.4258C70.0525 38.3715 70.5241 38.4258 70.9888 38.4021C71.1221 38.4023 71.254 38.3761 71.377 38.3249C71.5 38.2736 71.6117 38.1985 71.7054 38.1038C71.7991 38.0091 71.8731 37.8967 71.9231 37.7731C71.973 37.6495 71.9979 37.5173 71.9964 37.384C71.9913 36.8223 71.5859 36.4049 70.9736 36.3727ZM51.6371 40.2465C51.6371 41.6396 50.8111 42.4676 49.4236 42.4693C45.4783 42.4761 41.5342 42.4761 37.5911 42.4693C36.1731 42.4693 35.3555 41.6362 35.3522 40.2058C35.3522 38.3189 35.3522 36.4315 35.3522 34.5435C35.3522 33.1063 36.1663 32.2918 37.5962 32.2885C39.5688 32.2885 41.5415 32.2885 43.5125 32.2885C45.4834 32.2885 47.4137 32.2885 49.366 32.2885C50.8281 32.2885 51.6354 33.1063 51.6388 34.5825C51.6456 36.4728 51.6451 38.3608 51.6371 40.2465Z" fill="#0096D1"/>
<path d="M70.9736 36.3727C70.575 36.3506 70.173 36.3727 69.7133 36.3727C69.7964 35.5124 69.9135 34.7353 69.9355 33.9547C69.9508 33.1708 69.9202 32.3867 69.8439 31.6063C69.2842 25.3078 64.6333 19.6336 58.5711 17.7875C55.1641 16.73 51.507 16.8002 48.143 17.9877C46.1941 18.6512 44.1841 18.9888 42.1352 18.6664C40.6949 18.4266 39.2695 18.1048 37.8659 17.7026C34.845 16.839 31.8207 16.7117 28.7896 17.6636C28.0162 17.9063 27.6854 18.3678 27.8534 18.9939C28.023 19.5946 28.5691 19.766 29.3579 19.6268C30.686 19.391 32.0378 19.0465 33.3659 19.1042C34.9928 19.1899 36.6042 19.4643 38.1678 19.9221C41.9723 21.0063 45.6988 21.0895 49.4643 19.7286C51.6083 18.9532 53.854 18.9006 56.1167 19.2841C63.8276 20.5923 69.101 28.0821 67.7169 35.7568C67.6219 36.2879 67.4201 36.3778 66.9401 36.3761C62.742 36.3591 58.5423 36.3659 54.3425 36.3642C54.1373 36.3642 53.9338 36.3455 53.681 36.3337C53.681 35.6821 53.681 35.0712 53.681 34.4672C53.6624 32.0068 51.9238 30.2693 49.4576 30.2659C45.4919 30.2568 41.5262 30.2568 37.5606 30.2659C35.0621 30.2659 33.3354 32.0102 33.3201 34.5164C33.3201 35.1238 33.3201 35.7296 33.3201 36.3133C33.2539 36.3364 33.1858 36.354 33.1166 36.3659C28.685 36.3659 24.2529 36.371 19.8203 36.3812C19.4539 36.3812 19.364 36.2268 19.3114 35.9061C18.5702 31.5266 19.6354 27.6324 22.4256 24.198C22.8988 23.6143 22.8734 23.0103 22.3849 22.6319C21.8964 22.2535 21.3536 22.3366 20.8872 22.8966C18.1133 26.2054 16.8406 30.0255 17.0691 34.3569C17.103 35.0068 17.2115 35.6532 17.2947 36.3659C16.9215 36.3659 16.5857 36.3659 16.2498 36.3659C15.456 36.3761 14.9879 36.7647 14.9997 37.401C15.0116 38.0373 15.4611 38.3902 16.221 38.4021C16.6445 38.3848 17.0686 38.3905 17.4914 38.4191C17.5917 38.436 17.687 38.4753 17.7701 38.534C17.8532 38.5928 17.922 38.6695 17.9714 38.7584C18.6669 40.7742 19.8372 42.5101 21.128 44.1713C23.0277 46.6147 24.1811 49.3805 24.7968 52.394C25.6772 56.6887 26.5439 60.9884 27.4717 65.2728C28.0416 67.9046 30.4044 69.8322 33.0589 69.9544C35.8169 70.0816 38.2764 68.4442 39.138 65.8549C39.4315 64.9725 39.6265 64.0579 39.8402 63.1501C39.9997 62.4714 39.691 61.942 39.116 61.8181C38.541 61.6943 38.0592 62.0133 37.8761 62.7022C37.681 63.4403 37.5283 64.1886 37.3028 64.9165C36.7057 66.8407 35.0977 67.9928 33.1624 67.9216C31.3068 67.8537 29.77 66.537 29.3613 64.5805C28.5403 60.705 27.7007 56.8329 26.9629 52.9421C26.2301 49.0886 24.9139 45.5202 22.3832 42.4592C21.9659 41.9506 21.5893 41.4099 21.2569 40.8421C20.8108 40.0853 20.4275 39.2912 19.9814 38.4462H33.3184C33.3184 39.1114 33.3184 39.7256 33.3184 40.3398C33.3405 42.7256 35.0791 44.492 37.4537 44.5004C41.4838 44.5151 45.5134 44.5151 49.5424 44.5004C51.917 44.492 53.6539 42.7256 53.6776 40.3398C53.6776 39.7103 53.6776 39.0791 53.6776 38.4275H66.9587C66.7891 38.8263 66.6788 39.1996 66.477 39.5101C65.5678 40.9117 64.679 42.3319 63.6953 43.6826C61.7667 46.3313 60.7677 49.3448 60.1011 52.506C60.0583 52.7586 60.1112 53.0181 60.2495 53.2338C60.3877 53.4495 60.6014 53.6059 60.8487 53.6725C61.096 53.7391 61.3593 53.711 61.587 53.5938C61.8148 53.4767 61.9908 53.2788 62.0805 53.0388C62.1398 52.8801 62.1852 52.7166 62.2162 52.5501C62.9048 49.3856 64.0447 46.4297 66.1293 43.8964C67.3984 42.3811 68.3916 40.6547 69.0637 38.7957C69.1187 38.6985 69.1947 38.6147 69.2863 38.5507C69.3779 38.4867 69.4826 38.444 69.5929 38.4258C70.0525 38.3715 70.5241 38.4258 70.9888 38.4021C71.1221 38.4023 71.254 38.3761 71.377 38.3249C71.5 38.2737 71.6117 38.1985 71.7054 38.1038C71.7991 38.0091 71.8731 37.8967 71.9231 37.7731C71.973 37.6495 71.9979 37.5173 71.9964 37.384C71.9913 36.8223 71.5859 36.4049 70.9736 36.3727ZM51.6371 40.2465C51.6371 41.6396 50.8111 42.4677 49.4236 42.4694C45.4783 42.4761 41.5342 42.4761 37.5911 42.4694C36.1731 42.4694 35.3555 41.6362 35.3522 40.2058C35.3522 38.3189 35.3522 36.4315 35.3522 34.5435C35.3522 33.1063 36.1663 32.2919 37.5962 32.2885C39.5688 32.2885 41.5415 32.2885 43.5125 32.2885C45.4834 32.2885 47.4137 32.2885 49.366 32.2885C50.8281 32.2885 51.6354 33.1063 51.6388 34.5826C51.6456 36.4728 51.6451 38.3608 51.6371 40.2465Z" fill="#0096D1"/>
<path d="M59.2226 56.5358L61.2258 56.9142C61.0426 57.8135 60.8696 58.6755 60.6932 59.5375C60.3099 61.404 59.9435 63.2705 59.5398 65.137C58.9275 67.9605 56.5936 69.9169 53.7728 70C50.8639 70.0849 48.4061 68.2897 47.6666 65.4305C46.9067 62.5222 46.2299 59.5918 45.509 56.6733C45.1613 55.2632 44.0537 54.5556 42.8325 54.9561C42.496 55.0601 42.1932 55.2516 41.9548 55.5109C41.7164 55.7703 41.551 56.0882 41.4755 56.4323C41.255 57.2722 41.0651 58.1206 40.8412 58.9589C40.658 59.6376 40.1814 59.9481 39.5792 59.8073C38.9771 59.6664 38.7311 59.1523 38.8889 58.4498C39.0873 57.6014 39.2858 56.753 39.5114 55.9216C40.0202 54.0262 41.635 52.7791 43.5059 52.8062C45.3767 52.8334 46.961 54.0975 47.4359 56.0098C48.1619 58.9266 48.8658 61.8502 49.59 64.7688C50.0989 66.8253 51.7188 68.1064 53.705 68.0521C55.6912 67.9978 57.2093 66.6149 57.6248 64.5278C58.149 61.8944 58.6782 59.2592 59.2226 56.5358Z" fill="#0096D1"/>
<path d="M43.8348 27.2182C39.4604 27.091 35.6677 26.1 32.1312 24.164C31.4985 23.8246 31.2984 23.2918 31.5698 22.7573C31.8411 22.2228 32.4433 22.0582 33.0963 22.4179C36.0056 24.0091 39.2308 24.9362 42.5406 25.1328C46.2552 25.3382 49.7612 24.4541 53.1027 22.8557C53.408 22.7098 53.7032 22.5401 54.0068 22.3908C54.631 22.0854 55.1941 22.2398 55.4723 22.7844C55.7504 23.3291 55.552 23.8331 54.9634 24.1589C52.3856 25.5874 49.5692 26.5344 46.6522 26.9535C45.6005 27.0842 44.5404 27.1487 43.8348 27.2182Z" fill="#0096D1"/>
<path d="M25.0682 19.4655C25.3358 19.4655 25.5926 19.5709 25.7831 19.7589C25.9736 19.9469 26.0824 20.2024 26.0859 20.47C26.0859 21.0741 25.3413 21.7681 24.6781 21.7647C24.4217 21.762 24.176 21.6614 23.9913 21.4835C23.8065 21.3056 23.6967 21.0639 23.6842 20.8077C23.6502 20.2461 24.4474 19.4774 25.0682 19.4655Z" fill="#0096D1"/>
<path d="M39.3993 38.463C37.7235 38.2459 37.3639 38.0371 37.391 37.3381C37.4182 36.639 37.8117 36.4472 39.401 36.3302C39.4977 35.5394 39.1432 34.3228 40.4984 34.3686C41.7112 34.4111 41.394 35.5191 41.4822 36.3268H45.5072C45.6005 35.5225 45.2562 34.4314 46.5758 34.3466C47.2865 34.3008 47.5138 34.781 47.5935 36.3675C47.8921 36.3675 48.1991 36.3573 48.5044 36.3675C49.1591 36.3929 49.5882 36.7883 49.6001 37.3618C49.612 37.9353 49.1659 38.3799 48.4806 38.3986C48.2076 38.4088 47.9328 38.3986 47.5935 38.3986C47.4935 39.2266 47.8446 40.4432 46.491 40.3957C45.2783 40.3533 45.5954 39.2453 45.5072 38.4393H41.4788C41.3906 39.2487 41.7231 40.3346 40.4068 40.4195C39.7012 40.467 39.4756 39.9868 39.3993 38.463Z" fill="#0096D1"/>
</g>
<defs>
<clipPath id="clip0_102_517">
<rect width="57" height="53" fill="white" transform="translate(15 17)"/>
</clipPath>
</defs>
</svg>
