<svg width="88" height="88" viewBox="0 0 88 88" fill="none" xmlns="http://www.w3.org/2000/svg">
<circle cx="44" cy="44" r="44" fill="#0096D1" fill-opacity="0.1"/>
<g clip-path="url(#clip0_102_518)">
<path d="M33.6172 71C32.8624 70.6176 32.0417 70.3297 31.3685 69.8284C30.5249 69.1953 30.2055 68.1898 29.9749 67.1758C28.7288 61.6672 27.4765 56.1624 26.218 50.6615C26.1576 50.402 26.0561 50.154 25.9172 49.9267C23.7029 46.3288 22.2691 42.4487 21.7492 38.2506C21.4714 36.0105 21.2923 33.7547 21.8925 31.5303C23.2775 26.3741 26.5861 23.1271 31.7552 21.8352C34.1901 21.2264 36.625 21.4155 38.9883 22.2878C40.4363 22.8234 41.8772 23.3333 43.4513 23.3233C44.7062 23.3238 45.9496 23.0831 47.1137 22.6143C49.1676 21.7807 51.2859 21.3467 53.5089 21.5716C58.2454 22.0529 61.7474 24.4118 64.0233 28.5769C65.4714 31.2253 65.6618 34.0941 65.3954 37.0275C65.0517 40.8116 64.1594 44.4754 62.2444 47.7525C60.9382 49.994 60.3724 52.3945 59.821 54.8452C58.8857 58.9988 57.9289 63.141 57.0008 67.2918C56.5711 69.2182 55.4869 70.4901 53.516 70.9241C53.4673 70.9444 53.4219 70.9719 53.3814 71.0057H52.1997L51.5982 70.8253C49.6374 70.2194 48.7494 68.79 48.4357 66.8449C47.5925 61.6056 46.7212 56.371 45.8218 51.1413C45.7372 50.6687 45.5407 50.2233 45.2488 49.8422C44.6544 49.0902 43.8165 48.8396 42.8898 49.1017C41.8385 49.3881 41.3244 50.1573 41.1525 51.1971C40.3189 56.2388 39.4925 61.2805 38.6359 66.3178C38.4927 67.1385 38.3237 67.9836 37.98 68.7312C37.3712 70.059 36.1824 70.7021 34.796 71.0057L33.6172 71ZM63.671 35.0824C63.671 34.922 63.671 34.7602 63.671 34.5997C63.6552 34.2961 63.6423 33.991 63.6108 33.6888C63.1711 29.4635 61.0742 26.3354 57.2586 24.4577C54.351 23.0254 51.3361 22.9595 48.3082 24.1254C46.9848 24.6339 45.6398 25.0406 44.2119 25.128C42.2969 25.2469 40.4879 24.8415 38.719 24.134C37.1343 23.504 35.4262 23.2458 33.726 23.3792C27.888 23.7745 23.2173 28.8906 23.3276 34.7372C23.4264 39.9221 24.8186 44.7146 27.5729 49.1117C27.7593 49.4135 27.8957 49.7433 27.9768 50.0885C28.5096 52.3687 29.0181 54.6547 29.538 56.9378C30.3143 60.3523 31.0925 63.7674 31.8727 67.1829C32.0889 68.1354 32.669 68.7842 33.6 69.0564C35.0953 69.4861 36.4001 68.5651 36.6923 66.8549C37.2925 63.3301 37.8639 59.7995 38.4555 56.2732C38.7935 54.268 39.0857 52.2441 39.5139 50.2575C39.9107 48.4128 41.5994 47.191 43.5372 47.1681C45.3262 47.1466 47.1008 48.4256 47.4646 50.2289C48.0375 53.1021 48.4872 56.0025 48.9785 58.8914C49.4469 61.6414 49.8895 64.3957 50.3721 67.1428C50.4364 67.6092 50.6428 68.0444 50.9631 68.3893C51.2834 68.7342 51.7022 68.9721 52.1625 69.0707C53.6091 69.4431 54.8266 68.5737 55.1947 66.9509C56.3534 61.8262 57.5322 56.7057 58.6608 51.5738C58.9226 50.2798 59.4103 49.042 60.1017 47.9172C60.618 47.06 61.069 46.1652 61.4509 45.2402C62.8456 42.0312 63.5997 38.5806 63.671 35.0824Z" fill="#0096D1"/>
<path d="M20.834 16C21.0674 16.3165 21.4069 16.6016 21.5158 16.9553C21.934 18.3962 22.832 19.2943 24.2829 19.6495C24.757 19.7655 25.1122 19.9918 25.1423 20.5332C25.1681 21.0503 24.926 21.3439 24.2743 21.5086C23.0182 21.8251 22.1359 22.5513 21.669 23.763C21.5978 23.9649 21.5376 24.1705 21.4885 24.3789C21.3668 24.8458 21.099 25.138 20.5891 25.138C20.0792 25.138 19.85 24.8172 19.6681 24.3846C19.4132 23.7845 19.2141 23.1042 18.7858 22.6501C18.3332 22.1703 17.6658 21.8581 17.0441 21.5859C16.6273 21.3969 16.2191 21.268 16 20.834V20.2969C16.2464 19.893 16.6245 19.724 17.0714 19.5965C18.4077 19.2341 19.2198 18.3447 19.638 17.0312C19.7569 16.656 20.0677 16.3423 20.2969 16H20.834ZM19.5263 20.5604L20.5289 21.6776L21.6604 20.5833L20.5833 19.5048L19.5263 20.5604Z" fill="#0096D1"/>
<path d="M71 59.291C70.8138 59.7207 70.4729 59.9327 70.0261 60.0415C68.631 60.381 67.7659 61.2733 67.3763 62.6426C67.342 62.7629 67.3147 62.8846 67.2761 63.0035C67.2307 63.1884 67.1233 63.3522 66.972 63.4676C66.8206 63.583 66.6342 63.6432 66.4439 63.638C66.2448 63.6502 66.0476 63.5937 65.8852 63.478C65.7228 63.3622 65.605 63.1942 65.5516 63.0021C65.5029 62.8674 65.4699 62.7271 65.4313 62.5896C65.056 61.2518 64.1838 60.4225 62.8532 60.0386C62.5771 59.9791 62.3184 59.8571 62.0969 59.682C61.587 59.1922 61.8462 58.3929 62.5925 58.1939C63.4046 57.969 64.1823 57.6754 64.675 56.9721C65.0092 56.4714 65.2778 55.9298 65.4742 55.3608C65.6447 54.8981 65.8423 54.5458 66.378 54.5229C66.8636 54.5028 67.1901 54.7735 67.3348 55.3565C67.7058 56.8518 68.6239 57.7656 70.1192 58.1681C70.45 58.2569 70.7064 58.6235 70.9972 58.8613L71 59.291ZM65.3153 59.0217L66.3795 60.1432C66.7561 59.7923 67.1801 59.3998 67.4737 59.1248L66.4711 58.0034L65.3153 59.0217Z" fill="#0096D1"/>
<path d="M31.4071 27.0616C28.2675 27.6989 25.8469 30.9746 26.1692 34.2946H27.9123C27.9825 31.5933 29.1383 29.6827 31.7551 28.786C31.6363 28.2002 31.5245 27.6459 31.4071 27.0616ZM33.451 27.0286V28.7918H35.1998V27.0286H33.451Z" fill="white"/>
<path d="M31.4071 27.0616C31.5245 27.646 31.6363 28.2074 31.7551 28.7803C29.1383 29.6769 27.9825 31.5876 27.9123 34.2889H26.1692C25.8469 30.9746 28.2675 27.699 31.4071 27.0616Z" fill="#0096D1"/>
<path d="M33.4509 27.0286H35.1998V28.7918H33.4509V27.0286Z" fill="#0096D1"/>
</g>
<defs>
<clipPath id="clip0_102_518">
<rect width="55" height="55" fill="white" transform="translate(16 16)"/>
</clipPath>
</defs>
</svg>
