<svg width="53" height="53" viewBox="0 0 53 53" fill="none" xmlns="http://www.w3.org/2000/svg">
<rect width="53" height="53" rx="8" fill="#0096D1"/>
<path d="M43.3412 20.3643L43.3414 20.3644C44.3764 20.6659 45 21.5271 45 22.4724C45 23.4176 44.3764 24.2788 43.3414 24.5803L43.3412 24.5804L37.3361 26.3288L37.4379 27.1009L38.1913 32.8138L38.1998 32.8789V32.9445C38.1998 33.8508 37.6198 34.5346 36.9967 35C36.3556 35.4789 35.4915 35.8677 34.5136 36.1766C32.546 36.7981 29.8897 37.1667 26.9998 37.1667C24.1099 37.1667 21.4536 36.7981 19.486 36.1766C18.5081 35.8677 17.644 35.4789 17.0029 35C16.8751 34.9045 16.7491 34.7999 16.6295 34.686L16.6933 34.9581L15.7197 35.1864L16.6933 34.9582C16.9739 36.1549 16.0086 37.1667 14.8899 37.1667H11.9091C10.7904 37.1667 9.82566 36.1545 10.1062 34.9582L10.1062 34.9581L11.3276 29.7493C10.9543 29.3233 10.6997 28.7657 10.6997 28.1112C10.6997 27.3027 11.0829 26.6318 11.6209 26.1777C11.6849 25.7521 11.806 25.3455 11.9754 24.9633L10.6584 24.5799C10.6584 24.5799 10.6584 24.5799 10.6584 24.5799C9.62315 24.2785 9 23.417 9 22.4721C9 21.5272 9.62315 20.6657 10.6584 20.3643L43.3412 20.3643ZM43.3412 20.3643L28.5225 16.0496C27.5325 15.7613 26.4673 15.7613 25.4777 16.0496C25.4776 16.0496 25.4775 16.0496 25.4775 16.0496L10.6584 20.3643L43.3412 20.3643ZM15.9459 31.7708L15.4719 29.7493C15.8452 29.3233 16.0998 28.7657 16.0998 28.1112C16.0998 27.4031 15.8044 26.8041 15.3739 26.3631C15.4283 26.2404 15.5027 26.1243 15.5967 26.0181L16.6636 26.3287L16.5617 27.1014L15.9459 31.7708Z" stroke="white" stroke-width="2"/>
</svg>
