<svg width="88" height="88" viewBox="0 0 88 88" fill="none" xmlns="http://www.w3.org/2000/svg">
<circle cx="44" cy="44" r="44" fill="#0096D1" fill-opacity="0.1"/>
<g clip-path="url(#clip0_102_522)">
<path d="M25.6968 29.609C25.5246 29.6022 25.3543 29.6467 25.2076 29.7371C25.0609 29.8274 24.9445 29.9594 24.8731 30.1162C24.8018 30.273 24.7788 30.4475 24.8071 30.6174C24.8353 30.7873 24.9136 30.9449 25.0319 31.0702C25.1502 31.1954 25.3031 31.2826 25.4712 31.3206C25.6392 31.3585 25.8148 31.3456 25.9754 31.2833C26.1361 31.2211 26.2745 31.1124 26.3731 30.9712C26.4717 30.8299 26.526 30.6625 26.529 30.4902C26.533 30.2638 26.4481 30.0447 26.2926 29.88C26.137 29.7153 25.9232 29.6181 25.6968 29.609ZM31.9589 24.4431C29.9197 24.734 28.0656 25.784 26.7674 27.3829C26.6183 27.5533 26.5429 27.7759 26.5577 28.0018C26.5725 28.2277 26.6763 28.4385 26.8463 28.5881C27.0163 28.7376 27.2387 28.8136 27.4647 28.7995C27.6907 28.7853 27.9019 28.6821 28.0519 28.5126C29.1253 27.2514 30.609 26.409 32.2421 26.1333C32.6655 26.0567 32.8605 25.7332 32.9125 25.359C32.9255 24.8245 32.4603 24.3637 31.9589 24.4431V24.4431ZM31.9589 24.4431C29.9197 24.734 28.0656 25.784 26.7674 27.3829C26.6183 27.5533 26.5429 27.7759 26.5577 28.0018C26.5725 28.2277 26.6763 28.4385 26.8463 28.5881C27.0163 28.7376 27.2387 28.8136 27.4647 28.7995C27.6907 28.7853 27.9019 28.6821 28.0519 28.5126C29.1253 27.2514 30.609 26.409 32.2421 26.1333C32.6655 26.0567 32.8605 25.7332 32.9125 25.359C32.9255 24.8245 32.4603 24.3637 31.9589 24.4431V24.4431ZM25.6968 29.609C25.5246 29.6022 25.3543 29.6467 25.2076 29.7371C25.0609 29.8274 24.9445 29.9594 24.8731 30.1162C24.8018 30.273 24.7788 30.4475 24.8071 30.6174C24.8353 30.7873 24.9136 30.9449 25.0319 31.0702C25.1502 31.1954 25.3031 31.2826 25.4712 31.3206C25.6392 31.3585 25.8148 31.3456 25.9754 31.2833C26.1361 31.2211 26.2745 31.1124 26.3731 30.9712C26.4717 30.8299 26.526 30.6625 26.529 30.4902C26.533 30.2638 26.4481 30.0447 26.2926 29.88C26.137 29.7153 25.9232 29.6181 25.6968 29.609ZM25.6968 29.609C25.5246 29.6022 25.3543 29.6467 25.2076 29.7371C25.0609 29.8274 24.9445 29.9594 24.8731 30.1162C24.8018 30.273 24.7788 30.4475 24.8071 30.6174C24.8353 30.7873 24.9136 30.9449 25.0319 31.0702C25.1502 31.1954 25.3031 31.2826 25.4712 31.3206C25.6392 31.3585 25.8148 31.3456 25.9754 31.2833C26.1361 31.2211 26.2745 31.1124 26.3731 30.9712C26.4717 30.8299 26.526 30.6625 26.529 30.4902C26.533 30.2638 26.4481 30.0447 26.2926 29.88C26.137 29.7153 25.9232 29.6181 25.6968 29.609ZM31.9589 24.4431C29.9197 24.734 28.0656 25.784 26.7674 27.3829C26.6183 27.5533 26.5429 27.7759 26.5577 28.0018C26.5725 28.2277 26.6763 28.4385 26.8463 28.5881C27.0163 28.7376 27.2387 28.8136 27.4647 28.7995C27.6907 28.7853 27.9019 28.6821 28.0519 28.5126C29.1253 27.2514 30.609 26.409 32.2421 26.1333C32.6655 26.0567 32.8605 25.7332 32.9125 25.359C32.9255 24.8245 32.4603 24.3637 31.9589 24.4431V24.4431ZM31.9589 24.4431C29.9197 24.734 28.0656 25.784 26.7674 27.3829C26.6183 27.5533 26.5429 27.7759 26.5577 28.0018C26.5725 28.2277 26.6763 28.4385 26.8463 28.5881C27.0163 28.7376 27.2387 28.8136 27.4647 28.7995C27.6907 28.7853 27.9019 28.6821 28.0519 28.5126C29.1253 27.2514 30.609 26.409 32.2421 26.1333C32.6655 26.0567 32.8605 25.7332 32.9125 25.359C32.9255 24.8245 32.4603 24.3637 31.9589 24.4431V24.4431ZM25.6968 29.609C25.5246 29.6022 25.3543 29.6467 25.2076 29.7371C25.0609 29.8274 24.9445 29.9594 24.8731 30.1162C24.8018 30.273 24.7788 30.4475 24.8071 30.6174C24.8353 30.7873 24.9136 30.9449 25.0319 31.0702C25.1502 31.1954 25.3031 31.2826 25.4712 31.3206C25.6392 31.3585 25.8148 31.3456 25.9754 31.2833C26.1361 31.2211 26.2745 31.1124 26.3731 30.9712C26.4717 30.8299 26.526 30.6625 26.529 30.4902C26.533 30.2638 26.4481 30.0447 26.2926 29.88C26.137 29.7153 25.9232 29.6181 25.6968 29.609ZM68.9856 44.2732C68.9783 42.1901 67.4915 40.484 65.447 40.0839C64.6856 39.9394 63.9126 40.0709 63.1641 39.9799C63.1482 39.9293 63.1338 39.9091 63.1395 39.8975C63.2089 39.753 63.284 39.6086 63.3534 39.4641C65.3285 35.4958 65.4615 31.4942 63.443 27.5172C60.8711 22.4481 55.4961 19.9417 50.1356 21.2693C47.4481 21.9353 45.2519 23.4362 43.3345 25.385C43.0831 25.6407 42.9357 25.723 42.6698 25.411C42.4042 25.0916 42.1004 24.8058 41.7653 24.5601C41.381 24.2842 41.4894 24.1022 41.7581 23.8234C43.6085 21.914 45.8414 20.4169 48.3107 19.4303C52.118 17.8803 56.1131 17.4267 60.179 17.4585C60.4578 17.4585 60.5344 17.6029 60.6413 17.7994C61.1268 18.6994 61.8955 19.1804 62.9141 19.2021C64.1047 19.2271 65.2958 19.2271 66.4873 19.2021C67.1416 19.1499 67.7519 18.8523 68.1959 18.369C68.6398 17.8857 68.8846 17.2525 68.8811 16.5963C68.8777 15.9401 68.6262 15.3095 68.1771 14.8309C67.7281 14.3524 67.1146 14.0613 66.4599 14.016C65.2741 13.9948 64.083 13.9953 62.8867 14.0174C62.442 14.0118 62.0043 14.1291 61.6219 14.3562C61.2395 14.5833 60.9272 14.9114 60.7194 15.3046C60.52 15.6643 60.3076 15.7495 59.9276 15.7379C57.2378 15.6731 54.5499 15.9272 51.92 16.4949C47.4698 17.4772 43.5296 19.4072 40.3811 22.7746C40.0792 23.0982 39.9087 23.091 39.5561 22.8627C36.3586 20.7941 32.9169 20.3116 29.3234 21.5626C23.33 23.6414 19.8898 30.2562 21.4965 36.4435C21.8361 37.678 22.31 38.8716 22.9096 40.003H21.6728C18.8133 40.003 17 41.8087 17 44.656C17 50.1975 17 55.739 17 61.2806C17 64.2073 18.7902 66.0059 21.7161 66.0059H46.1347C52.2726 66.0059 58.4099 66.0059 64.5469 66.0059C67.0393 66.0059 68.9725 64.1553 68.9812 61.7183C69.0043 55.8994 69.0058 50.0844 68.9856 44.2732ZM63.0355 15.7452C63.5744 15.7365 64.1148 15.7452 64.6552 15.7452C65.1956 15.7452 65.7707 15.735 66.3284 15.7452C66.8861 15.7553 67.2459 16.0991 67.2575 16.5888C67.269 17.0785 66.8919 17.4671 66.3125 17.4671C65.2144 17.4777 64.1168 17.4777 63.0196 17.4671C62.4344 17.4671 62.0588 17.1045 62.0645 16.6004C62.0703 16.0962 62.4417 15.7553 63.0355 15.7452ZM29.0677 23.5142C32.3765 22.035 35.5697 22.5117 38.6198 24.3276C38.8871 24.4865 38.8525 24.5963 38.7022 24.8144C36.4786 28.0232 35.0024 31.6894 34.382 35.5435C34.2173 36.5359 34.1941 36.5359 33.1943 36.5359C32.0023 36.5359 30.8117 36.5272 29.6196 36.5359C27.4523 36.5532 26.2299 38.6783 27.3382 40.5476C28.403 42.3432 29.4838 44.1273 30.2496 46.0819C30.9686 47.8568 31.3356 49.7546 31.3304 51.6696C31.3188 52.7155 31.3521 53.7657 31.6352 54.7827C31.9676 55.9745 32.5903 56.9106 33.8777 57.2501C34.723 57.474 35.4078 57.2501 35.9425 56.5726C36.4958 55.8662 36.7978 55.0341 37.042 54.1847C37.4899 52.6288 37.8873 51.0585 38.3424 49.507C38.6776 48.3802 39.1515 47.3098 39.9231 46.3997C40.2965 45.9452 40.7663 45.5795 41.2985 45.3289C41.8307 45.0782 42.4119 44.949 43.0002 44.9505C43.5884 44.952 44.169 45.0843 44.6998 45.3376C45.2307 45.591 45.6986 45.9592 46.0697 46.4156C47.0912 47.6363 47.5637 49.1126 47.9697 50.6049C48.3757 52.0972 48.721 53.6386 49.2701 55.1179C49.3798 55.422 49.5102 55.7184 49.6602 56.0049C50.4534 57.4899 51.9142 57.7774 53.2276 56.7069C53.9847 56.0901 54.2824 55.2277 54.4702 54.3132C54.62 53.5875 54.6825 52.8464 54.6566 52.1059C54.5439 49.0159 55.4744 46.209 56.9236 43.5408C57.4467 42.5758 58.0088 41.6325 58.578 40.6935C59.1473 39.7545 59.2745 38.8011 58.7225 37.8303C58.1706 36.8595 57.3008 36.5359 56.2229 36.5359C52.9748 36.5504 49.7209 36.5359 46.4757 36.5359C43.1524 36.5359 39.8292 36.5359 36.506 36.5359C36.1404 36.5359 36.006 36.4854 36.0725 36.0765C36.6254 32.4525 37.9686 28.9943 40.0069 25.947C40.254 25.5771 40.3826 25.6075 40.6745 25.8776C41.511 26.6505 42.2768 27.4537 42.8071 28.4952C43.8893 30.6188 45.8009 31.2804 48.0419 31.24C48.2521 31.233 48.4517 31.146 48.5997 30.9966C48.7477 30.8473 48.833 30.647 48.8381 30.4368C48.8471 30.2176 48.7726 30.0031 48.6297 29.8366C48.4868 29.6701 48.286 29.564 48.0679 29.5397C47.6056 29.4718 47.136 29.4992 46.6693 29.4111C45.4671 29.1829 44.6811 28.4678 44.1595 27.3988C44.0743 27.2254 44.067 27.1099 44.2029 26.9741C46.4482 24.6266 49.036 22.883 52.3795 22.6894C56.5451 22.4481 60.231 24.732 62.0602 28.6123C63.5152 31.7095 63.5224 34.8428 62.1339 37.9704C61.4619 39.4665 60.6388 40.8901 59.6776 42.219C58.4008 43.99 57.4339 45.9649 56.8182 48.0595C56.5104 49.104 56.4353 50.1845 56.415 51.268C56.3847 52.9163 56.2344 54.5472 55.5481 56.0742C54.9861 57.3194 54.2477 58.413 52.8678 58.8738C52.1467 59.1239 51.3657 59.1441 50.6325 58.9316C49.8994 58.7192 49.2502 58.2846 48.7745 57.6878C47.7558 56.418 47.3383 54.8824 46.9077 53.354C46.545 52.0726 46.2705 50.7667 45.8298 49.5085C45.6372 48.9073 45.3562 48.3382 44.9961 47.8197C43.9124 46.3404 42.063 46.3477 40.9952 47.8385C40.4953 48.5362 40.215 49.3337 39.9679 50.1499C39.4391 51.8834 39.101 53.6805 38.4623 55.388C38.1575 56.1825 37.8064 56.9525 37.2761 57.6271C35.7474 59.5384 33.0137 59.5831 31.4517 57.7023C30.3045 56.3183 29.845 54.6686 29.6702 52.9163C29.5445 51.6421 29.637 50.3521 29.4043 49.0852C29.0142 46.9645 28.1458 45.0287 26.9827 43.2374C25.7777 41.3782 24.5105 39.5652 23.6595 37.5009C21.4589 32.2021 23.8907 25.8299 29.0677 23.5142ZM67.2531 61.7472C67.2531 63.1744 66.0828 64.2564 64.609 64.2622C61.9374 64.2723 59.2629 64.2622 56.5942 64.2622H21.6699C19.7583 64.2723 18.7339 63.238 18.7339 61.3253C18.7339 55.7665 18.7339 50.2077 18.7339 44.6488C18.7339 42.7708 19.7684 41.7394 21.6424 41.7379H23.5916C23.7707 41.7379 23.9268 41.7307 24.0554 41.9214C25.402 43.9034 26.7241 45.897 27.4234 48.2285C27.7001 49.1997 27.8392 50.2048 27.8366 51.2145C27.8699 53.3424 28.1256 55.4241 29.137 57.3411C30.0545 59.0746 31.3318 60.3748 33.3633 60.7157C35.7936 61.1245 37.8858 60.0873 39.2108 57.8337C40.2106 56.132 40.6557 54.2367 41.1484 52.3572C41.4041 51.3836 41.6079 50.3926 42.0153 49.468C42.2133 49.026 42.4098 48.4958 42.9834 48.4915C43.557 48.4871 43.7651 49.0144 43.9558 49.4579C44.5337 50.7869 44.775 52.2142 45.1579 53.601C45.6073 55.2349 46.0913 56.8543 47.0565 58.2787C49.3149 61.6114 53.8374 61.6793 56.1882 58.4058C57.5421 56.5278 58.1258 54.3609 58.0911 52.0914C58.0405 48.6807 59.273 45.7684 61.1918 43.0641C61.228 43.0235 61.2586 42.9784 61.2829 42.9297C61.6874 41.8391 62.4995 41.5646 63.5773 41.7278C64.1437 41.8131 64.7332 41.6715 65.2996 41.8246C66.4324 42.128 67.243 43.093 67.2459 44.2588C67.2632 50.0892 67.2657 55.9187 67.2531 61.7472ZM28.0519 28.5126C29.1253 27.2514 30.609 26.409 32.2421 26.1333C32.6655 26.0567 32.8605 25.7332 32.9125 25.359C32.9284 24.8245 32.4689 24.3637 31.9618 24.4431C29.9216 24.7333 28.0663 25.7833 26.7674 27.3829C26.6183 27.5533 26.5429 27.7759 26.5577 28.0018C26.5725 28.2277 26.6763 28.4385 26.8463 28.5881C27.0163 28.7376 27.2387 28.8136 27.4647 28.7995C27.6907 28.7853 27.9019 28.6821 28.0519 28.5126V28.5126ZM25.6606 31.3353C25.8306 31.3368 25.9972 31.2883 26.1398 31.1959C26.2824 31.1035 26.3947 30.9712 26.4627 30.8155C26.5307 30.6598 26.5515 30.4876 26.5224 30.3202C26.4932 30.1528 26.4156 29.9976 26.299 29.874C26.1824 29.7504 26.0321 29.6637 25.8666 29.6248C25.7012 29.586 25.528 29.5965 25.3685 29.6553C25.2091 29.714 25.0704 29.8183 24.9697 29.9552C24.8691 30.0921 24.8109 30.2555 24.8024 30.4252C24.7965 30.5419 24.8143 30.6586 24.8547 30.7682C24.8951 30.8779 24.9573 30.9782 25.0375 31.0632C25.1176 31.1482 25.2142 31.2162 25.3213 31.2629C25.4283 31.3097 25.5438 31.3343 25.6606 31.3353V31.3353ZM25.6968 29.6018C25.5246 29.5949 25.3543 29.6395 25.2076 29.7298C25.0609 29.8202 24.9445 29.9522 24.8731 30.109C24.8018 30.2657 24.7788 30.4402 24.8071 30.6102C24.8353 30.7801 24.9136 30.9377 25.0319 31.063C25.1502 31.1882 25.3031 31.2754 25.4712 31.3133C25.6392 31.3513 25.8148 31.3383 25.9754 31.2761C26.1361 31.2139 26.2745 31.1052 26.3731 30.9639C26.4717 30.8227 26.526 30.6552 26.529 30.483C26.5311 30.2578 26.4454 30.0406 26.29 29.8774C26.1347 29.7143 25.9219 29.618 25.6968 29.609V29.6018ZM31.9589 24.4359C29.9187 24.7287 28.0644 25.7813 26.7674 27.3829C26.6183 27.5533 26.5429 27.7759 26.5577 28.0018C26.5725 28.2277 26.6763 28.4385 26.8463 28.5881C27.0163 28.7376 27.2387 28.8136 27.4647 28.7995C27.6907 28.7853 27.9019 28.6821 28.0519 28.5126C29.1253 27.2514 30.609 26.409 32.2421 26.1333C32.6655 26.0567 32.8605 25.7332 32.9125 25.359C32.9255 24.8245 32.4603 24.3637 31.9589 24.4431V24.4359ZM31.9589 24.4359C29.9187 24.7287 28.0644 25.7813 26.7674 27.3829C26.6183 27.5533 26.5429 27.7759 26.5577 28.0018C26.5725 28.2277 26.6763 28.4385 26.8463 28.5881C27.0163 28.7376 27.2387 28.8136 27.4647 28.7995C27.6907 28.7853 27.9019 28.6821 28.0519 28.5126C29.1253 27.2514 30.609 26.409 32.2421 26.1333C32.6655 26.0567 32.8605 25.7332 32.9125 25.359C32.9255 24.8245 32.4603 24.3637 31.9589 24.4431V24.4359ZM25.6968 29.609C25.5246 29.6022 25.3543 29.6467 25.2076 29.7371C25.0609 29.8274 24.9445 29.9594 24.8731 30.1162C24.8018 30.273 24.7788 30.4475 24.8071 30.6174C24.8353 30.7873 24.9136 30.9449 25.0319 31.0702C25.1502 31.1954 25.3031 31.2826 25.4712 31.3206C25.6392 31.3585 25.8148 31.3456 25.9754 31.2833C26.1361 31.2211 26.2745 31.1124 26.3731 30.9712C26.4717 30.8299 26.526 30.6625 26.529 30.4902C26.533 30.2638 26.4481 30.0447 26.2926 29.88C26.137 29.7153 25.9232 29.6181 25.6968 29.609ZM25.6968 29.609C25.5246 29.6022 25.3543 29.6467 25.2076 29.7371C25.0609 29.8274 24.9445 29.9594 24.8731 30.1162C24.8018 30.273 24.7788 30.4475 24.8071 30.6174C24.8353 30.7873 24.9136 30.9449 25.0319 31.0702C25.1502 31.1954 25.3031 31.2826 25.4712 31.3206C25.6392 31.3585 25.8148 31.3456 25.9754 31.2833C26.1361 31.2211 26.2745 31.1124 26.3731 30.9712C26.4717 30.8299 26.526 30.6625 26.529 30.4902C26.533 30.2638 26.4481 30.0447 26.2926 29.88C26.137 29.7153 25.9232 29.6181 25.6968 29.609ZM31.9589 24.4431C29.9197 24.734 28.0656 25.784 26.7674 27.3829C26.6183 27.5533 26.5429 27.7759 26.5577 28.0018C26.5725 28.2277 26.6763 28.4385 26.8463 28.5881C27.0163 28.7376 27.2387 28.8136 27.4647 28.7995C27.6907 28.7853 27.9019 28.6821 28.0519 28.5126C29.1253 27.2514 30.609 26.409 32.2421 26.1333C32.6655 26.0567 32.8605 25.7332 32.9125 25.359C32.9255 24.8245 32.4603 24.3637 31.9589 24.4431V24.4431ZM31.9589 24.4431C29.9197 24.734 28.0656 25.784 26.7674 27.3829C26.6183 27.5533 26.5429 27.7759 26.5577 28.0018C26.5725 28.2277 26.6763 28.4385 26.8463 28.5881C27.0163 28.7376 27.2387 28.8136 27.4647 28.7995C27.6907 28.7853 27.9019 28.6821 28.0519 28.5126C29.1253 27.2514 30.609 26.409 32.2421 26.1333C32.6655 26.0567 32.8605 25.7332 32.9125 25.359C32.9255 24.8245 32.4603 24.3637 31.9589 24.4431V24.4431ZM25.6968 29.609C25.5246 29.6022 25.3543 29.6467 25.2076 29.7371C25.0609 29.8274 24.9445 29.9594 24.8731 30.1162C24.8018 30.273 24.7788 30.4475 24.8071 30.6174C24.8353 30.7873 24.9136 30.9449 25.0319 31.0702C25.1502 31.1954 25.3031 31.2826 25.4712 31.3206C25.6392 31.3585 25.8148 31.3456 25.9754 31.2833C26.1361 31.2211 26.2745 31.1124 26.3731 30.9712C26.4717 30.8299 26.526 30.6625 26.529 30.4902C26.533 30.2638 26.4481 30.0447 26.2926 29.88C26.137 29.7153 25.9232 29.6181 25.6968 29.609Z" fill="#0096D1"/>
</g>
<defs>
<clipPath id="clip0_102_522">
<rect width="52" height="52" fill="white" transform="translate(17 14)"/>
</clipPath>
</defs>
</svg>
