<svg width="88" height="88" viewBox="0 0 88 88" fill="none" xmlns="http://www.w3.org/2000/svg">
<circle cx="44" cy="44" r="44" fill="#0096D1" fill-opacity="0.1"/>
<g clip-path="url(#clip0_102_519)">
<path d="M16 50.2466C16.3485 50.0129 16.6665 49.6756 17.05 49.5617C19.8573 48.728 22.6777 47.9395 25.4938 47.132C26.8694 46.705 28.3509 46.7726 29.6821 47.3233C29.6456 47.1247 29.6296 46.9919 29.596 46.8619C29.3846 46.053 29.1585 45.247 28.9573 44.4351C28.756 43.6233 29.1163 43.1122 29.9694 43.0874C30.8225 43.0626 31.6829 43.064 32.5375 43.0874C32.8963 43.0976 33.045 42.9779 33.1208 42.6289C33.484 41.0884 33.8777 39.5626 34.2613 38.0221C34.6623 36.4159 35.6671 35.6172 37.3238 35.6158C41.7697 35.6099 46.2167 35.6099 50.6646 35.6158C52.3198 35.6158 53.326 36.4145 53.7271 38.0148C54.1106 39.5494 54.5029 41.0811 54.8675 42.6216C54.9492 42.9647 55.0877 43.0991 55.4508 43.0874C56.2704 43.0611 57.0915 43.0728 57.911 43.0874C58.8677 43.0976 59.244 43.5707 59.0179 44.4892C58.7919 45.4076 58.5527 46.3114 58.3194 47.2211C59.0281 47.0985 59.7121 46.8955 60.399 46.8838C61.1077 46.8742 61.8142 46.9651 62.4975 47.1539C65.3228 47.9249 68.1383 48.7299 70.9442 49.569C71.3292 49.6829 71.6471 50.0188 71.9956 50.2524V72.0088H16V50.2466ZM17.8783 70.0945H70.1129V51.2395C67.2633 50.4335 64.4327 49.6172 61.5919 48.8346C61.089 48.6938 60.5623 48.6601 60.0457 48.7356C59.529 48.811 59.0338 48.994 58.5921 49.2726C57.8702 49.7107 57.1206 50.2174 57.0463 51.13C56.8771 53.2165 56.8056 55.3118 56.686 57.4086C56.549 59.8267 56.4498 62.2476 56.2485 64.6612C56.0575 66.9975 53.8496 68.6139 51.56 68.1992C49.8406 67.8882 48.5413 66.5127 48.2554 64.6466C47.5948 60.329 46.9531 56.0098 46.2998 51.6907C46.1146 50.47 45.1492 49.6099 43.9956 49.6158C42.8683 49.6158 41.8781 50.5108 41.6944 51.7111C41.0367 56.0463 40.395 60.3859 39.7271 64.7196C39.4573 66.485 38.4496 67.6896 36.7083 68.1277C35.0327 68.5482 33.6181 68.0108 32.5288 66.6675C31.785 65.7491 31.7092 64.6393 31.6538 63.5209C31.4263 59.3886 31.1968 55.2598 30.9654 51.1343C30.952 50.9555 30.8976 50.7821 30.8065 50.6277C29.9767 49.2244 28.2179 48.4024 26.6313 48.8025C24.4102 49.3646 22.214 50.0217 20.0075 50.6437C19.2958 50.8438 18.5856 51.0511 17.8783 51.2555V70.0945ZM30.91 44.9579C31.4933 46.6443 32.0402 48.2023 32.5725 49.7662C32.6964 50.0876 32.7778 50.4238 32.8146 50.7664C32.9852 53.64 33.1296 56.5136 33.29 59.3813C33.3848 61.0722 33.4679 62.7645 33.6079 64.4524C33.694 65.5008 34.6288 66.336 35.6496 66.3959C36.6704 66.4558 37.6227 65.7038 37.8502 64.6437C37.9115 64.359 37.9421 64.0684 37.9844 63.7808C38.6071 59.6412 39.2123 55.4987 39.8598 51.3694C40.1908 49.2624 41.8738 47.8212 43.9708 47.7482C45.874 47.6825 47.6458 49.0536 48.0542 51.0949C48.4625 53.1362 48.7119 55.1834 49.024 57.2407C49.3958 59.6587 49.7488 62.0651 50.125 64.4773C50.2956 65.5855 51.2785 66.4383 52.3008 66.4091C53.4413 66.374 54.2871 65.5665 54.4183 64.3809C54.4504 64.0889 54.4723 63.7968 54.4869 63.5048C54.6838 59.8851 54.9025 56.2668 55.0702 52.6471C55.1358 51.1592 55.3619 49.737 55.9452 48.3498C56.3827 47.2824 56.6744 46.1508 57.0623 44.9418H36.5771V43.0772H53.0271C52.9965 42.8742 52.9863 42.7326 52.9527 42.5968C52.6071 41.2199 52.2629 39.8444 51.91 38.4704C51.7088 37.6877 51.4448 37.4804 50.6442 37.4804C46.2147 37.4804 41.7853 37.4804 37.3558 37.4804C36.5552 37.4804 36.2898 37.6877 36.09 38.4689C35.6277 40.2839 35.1742 42.1018 34.7163 43.9182C34.5033 44.7593 34.2598 44.9506 33.376 44.9564C32.6148 44.9608 31.8521 44.9579 30.91 44.9579Z" fill="#0096D1"/>
<path d="M43.9781 31.888H30.1998C29.2533 31.888 29.0083 31.6909 28.829 30.7753C28.3801 28.5427 28.149 26.2717 28.1392 23.9944C28.1392 19.3832 31.9104 15.7956 36.5114 16.0657C37.3122 16.1103 38.1003 16.2854 38.8448 16.5841C42.2923 17.9917 45.6989 17.9624 49.1552 16.5841C51.9114 15.4904 54.5379 15.9474 56.8727 17.7639C58.7598 19.224 59.7616 21.2157 59.8477 23.6045C59.9352 26.0722 59.6362 28.5121 59.1375 30.9272C58.9829 31.6777 58.7102 31.8865 57.9241 31.8865L43.9781 31.888ZM57.4983 29.9898C57.6587 28.4055 57.8644 26.8388 57.9577 25.2662C58.0116 24.3667 58.0131 23.4249 57.8119 22.5546C56.9689 18.9364 53.2823 17.006 49.791 18.3202C48.1271 18.9451 46.4369 19.4168 44.6548 19.5029C42.3739 19.6124 40.2244 19.0809 38.1054 18.2793C34.7673 17.0221 31.0442 18.9568 30.226 22.4247C29.6281 24.9595 30.226 27.4783 30.5542 30.0029L57.4983 29.9898Z" fill="#0096D1"/>
<path d="M35.1539 19.9424C32.943 20.9178 31.4191 23.9433 31.9455 26.2576H33.7495C33.5774 24.1871 34.2453 22.5444 36.0668 21.4858L35.1539 19.9424Z" fill="white"/>
<path d="M35.1537 19.9424L36.0593 21.4858C34.2379 22.5444 33.57 24.1871 33.7421 26.2576H31.9381C31.4189 23.9433 32.9429 20.9178 35.1537 19.9424Z" fill="#0096D1"/>
</g>
<defs>
<clipPath id="clip0_102_519">
<rect width="56" height="56" fill="white" transform="translate(16 16)"/>
</clipPath>
</defs>
</svg>
