<svg width="53" height="53" viewBox="0 0 53 53" fill="none" xmlns="http://www.w3.org/2000/svg">
<rect width="53" height="53" rx="8" fill="#0096D1"/>
<mask id="path-2-outside-1_102_523" maskUnits="userSpaceOnUse" x="13" y="11" width="28" height="30" fill="black">
<rect fill="white" x="13" y="11" width="28" height="30"/>
<path d="M37.8028 18.6997C37.2621 16.4917 35.4894 14.6928 33.2845 14.1235C31.7037 13.7153 30.1907 14.3725 28.9071 15.3115C28.7475 15.4282 28.5653 15.4936 28.3915 15.5791L29.7822 16.4682C30.1465 16.7011 30.2526 17.1845 30.0179 17.5478C29.7989 17.8872 29.3171 18.0293 28.9321 17.7822L23.9964 14.6269C22.9799 14.0971 21.8661 13.8261 20.7156 14.1235C18.5107 14.6933 16.7379 16.4917 16.1972 18.6997C15.6998 20.7319 16.1766 22.6455 17.253 24.0918C18.4002 25.6333 18.8578 27.4443 19.0351 29.3335C19.2512 31.6362 19.5424 33.9311 20.0634 36.1851L20.4465 37.8428C20.6031 38.52 21.2071 39 21.9035 39C22.5895 39 23.1876 38.5337 23.3541 37.8691L25.0468 31.1103C25.2707 30.2158 26.0761 29.5889 26.9993 29.5889C27.9225 29.5889 28.7278 30.2163 28.9518 31.1103L30.6445 37.8691C30.811 38.5337 31.4091 39 32.0951 39C32.7914 39 33.3954 38.52 33.5521 37.8428L33.9351 36.1851C34.4562 33.9316 34.7469 31.6362 34.9634 29.3335C35.1407 27.4438 35.5984 25.6333 36.7455 24.0918C37.8234 22.646 38.3002 20.7324 37.8028 18.6997Z"/>
</mask>
<path d="M37.8028 18.6997L39.7455 18.2243L39.7454 18.224L37.8028 18.6997ZM33.2845 14.1235L32.7844 16.06L32.7844 16.06L33.2845 14.1235ZM28.9071 15.3115L30.0876 16.9259L30.0879 16.9257L28.9071 15.3115ZM28.3915 15.5791L27.5092 13.7842L24.3218 15.3509L27.3141 17.2641L28.3915 15.5791ZM29.7822 16.4682L28.7048 18.1533L28.705 18.1534L29.7822 16.4682ZM30.0179 17.5478L28.338 16.4624L28.3375 16.4633L30.0179 17.5478ZM28.9321 17.7822L30.0123 16.099L30.0094 16.0971L28.9321 17.7822ZM23.9964 14.6269L25.0736 12.9418L24.9991 12.8942L24.9207 12.8533L23.9964 14.6269ZM20.7156 14.1235L21.216 16.0599L21.216 16.0599L20.7156 14.1235ZM16.1972 18.6997L14.2546 18.224L14.2546 18.2241L16.1972 18.6997ZM17.253 24.0918L18.8575 22.8978L18.8574 22.8977L17.253 24.0918ZM19.0351 29.3335L21.0264 29.1466L21.0264 29.1466L19.0351 29.3335ZM20.0634 36.1851L22.0121 35.7348L22.012 35.7346L20.0634 36.1851ZM20.4465 37.8428L18.4978 38.293L18.4979 38.2935L20.4465 37.8428ZM23.3541 37.8691L25.2941 38.3551L25.2942 38.355L23.3541 37.8691ZM25.0468 31.1103L26.9869 31.5962L26.9869 31.596L25.0468 31.1103ZM28.9518 31.1103L30.8918 30.6245L30.8918 30.6244L28.9518 31.1103ZM30.6445 37.8691L28.7044 38.355L28.7044 38.3551L30.6445 37.8691ZM33.5521 37.8428L35.5007 38.2935L35.5008 38.293L33.5521 37.8428ZM33.9351 36.1851L31.9865 35.7345L31.9865 35.7348L33.9351 36.1851ZM34.9634 29.3335L36.9546 29.5207L36.9547 29.5203L34.9634 29.3335ZM36.7455 24.0918L35.1421 22.8964L35.141 22.8978L36.7455 24.0918ZM39.7454 18.224C39.0298 15.3016 36.7036 12.9408 33.7845 12.187L32.7844 16.06C34.2751 16.4449 35.4944 17.6817 35.8602 19.1753L39.7454 18.224ZM33.7845 12.187C31.3374 11.5551 29.1896 12.6268 27.7263 13.6972L30.0879 16.9257C31.1918 16.1182 32.07 15.8755 32.7844 16.06L33.7845 12.187ZM27.7266 13.697C27.7918 13.6493 27.8331 13.6329 27.7932 13.652C27.7714 13.6624 27.749 13.6725 27.6965 13.6963C27.652 13.7165 27.5831 13.7479 27.5092 13.7842L29.2737 17.3739C29.4235 17.3003 29.2447 17.3914 29.516 17.262C29.6505 17.1978 29.8627 17.0903 30.0876 16.9259L27.7266 13.697ZM27.3141 17.2641L28.7048 18.1533L30.8595 14.7832L29.4688 13.894L27.3141 17.2641ZM28.705 18.1534C28.1389 17.7915 27.969 17.0336 28.338 16.4624L31.6977 18.6332C32.5362 17.3355 32.1541 15.6107 30.8593 14.7831L28.705 18.1534ZM28.3375 16.4633C28.6706 15.9471 29.4 15.706 30.0123 16.099L27.8519 19.4654C29.2343 20.3525 30.9271 19.8272 31.6983 18.6323L28.3375 16.4633ZM30.0094 16.0971L25.0736 12.9418L22.9192 16.312L27.8549 19.4673L30.0094 16.0971ZM24.9207 12.8533C23.6315 12.1814 21.9988 11.7261 20.2151 12.1871L21.216 16.0599C21.7334 15.9261 22.3283 16.0129 23.072 16.4005L24.9207 12.8533ZM20.2151 12.1871C17.2966 12.9414 14.9703 15.3013 14.2546 18.224L18.1398 19.1753C18.5055 17.682 19.7247 16.4453 21.216 16.0599L20.2151 12.1871ZM14.2546 18.2241C13.6106 20.8551 14.2285 23.3777 15.6486 25.2859L18.8574 22.8977C18.1248 21.9132 17.789 20.6087 18.1399 19.1752L14.2546 18.2241ZM15.6486 25.2858C16.4895 26.4158 16.8839 27.8157 17.0439 29.5203L21.0264 29.1466C20.8318 27.0729 20.3108 24.8507 18.8575 22.8978L15.6486 25.2858ZM17.0439 29.5203C17.2635 31.8605 17.5647 34.256 18.1148 36.6355L22.012 35.7346C21.5201 33.6063 21.2389 31.4119 21.0264 29.1466L17.0439 29.5203ZM18.1148 36.6353L18.4978 38.293L22.3951 37.3925L22.0121 35.7348L18.1148 36.6353ZM18.4979 38.2935C18.8647 39.8792 20.2777 41 21.9035 41V37C22.1365 37 22.3415 37.1608 22.395 37.3921L18.4979 38.2935ZM21.9035 41C23.5052 41 24.9043 39.9112 25.2941 38.3551L21.414 37.3831C21.4709 37.1562 21.6738 37 21.9035 37V41ZM25.2942 38.355L26.9869 31.5962L23.1067 30.6245L21.414 37.3833L25.2942 38.355ZM26.9869 31.596C26.9871 31.5953 26.9873 31.5948 26.9873 31.5946C26.9874 31.5945 26.9874 31.5944 26.9874 31.5943C26.9874 31.5943 26.9875 31.5943 26.9875 31.5943C26.9875 31.5943 26.9874 31.5943 26.9874 31.5943C26.9874 31.5943 26.9874 31.5943 26.9874 31.5943C26.9874 31.5944 26.9874 31.5944 26.9874 31.5944C26.9875 31.5943 26.9882 31.5932 26.9899 31.5919C26.9916 31.5906 26.9932 31.5898 26.9942 31.5894C26.9946 31.5893 26.9958 31.5889 26.9993 31.5889V27.5889C25.1617 27.5889 23.5541 28.837 23.1067 30.6247L26.9869 31.596ZM26.9993 31.5889C27.0026 31.5889 27.0036 31.5893 27.004 31.5894C27.005 31.5898 27.0067 31.5905 27.0085 31.5919C27.0103 31.5933 27.0111 31.5945 27.0112 31.5947C27.0113 31.5947 27.0113 31.5947 27.0112 31.5947C27.0112 31.5947 27.0112 31.5947 27.0112 31.5946C27.0112 31.5946 27.0112 31.5946 27.0112 31.5946C27.0112 31.5946 27.0112 31.5946 27.0112 31.5947C27.0112 31.5947 27.0113 31.5948 27.0113 31.5949C27.0114 31.5951 27.0115 31.5955 27.0117 31.5963L30.8918 30.6244C30.4444 28.838 28.8373 27.5889 26.9993 27.5889V31.5889ZM27.0117 31.5962L28.7044 38.355L32.5846 37.3833L30.8918 30.6245L27.0117 31.5962ZM28.7044 38.3551C29.0942 39.9112 30.4934 41 32.0951 41V37C32.3248 37 32.5277 37.1562 32.5845 37.3831L28.7044 38.3551ZM32.0951 41C33.7208 41 35.1339 39.8792 35.5007 38.2935L31.6035 37.3921C31.657 37.1608 31.862 37 32.0951 37V41ZM35.5008 38.293L35.8838 36.6353L31.9865 35.7348L31.6034 37.3925L35.5008 38.293ZM35.8837 36.6356C36.4339 34.2563 36.7346 31.8602 36.9546 29.5207L32.9722 29.1462C32.7591 31.4123 32.4785 33.607 31.9865 35.7345L35.8837 36.6356ZM36.9547 29.5203C37.1146 27.8153 37.509 26.4159 38.35 25.2858L35.141 22.8978C33.6878 24.8507 33.1668 27.0723 32.9722 29.1467L36.9547 29.5203ZM38.3489 25.2872C39.7717 23.3788 40.3894 20.8556 39.7455 18.2243L35.8601 19.1751C36.2111 20.6092 35.8751 21.9131 35.1421 22.8964L38.3489 25.2872Z" fill="white" mask="url(#path-2-outside-1_102_523)"/>
</svg>
