<svg width="88" height="88" viewBox="0 0 88 88" fill="none" xmlns="http://www.w3.org/2000/svg">
<circle cx="44" cy="44" r="44" fill="#0096D1" fill-opacity="0.1"/>
<g clip-path="url(#clip0_102_520)">
<path d="M52.9513 15C53.2553 15.0712 53.5699 15.1484 53.8814 15.2123C58.234 16.1623 61.1611 19.9623 60.9924 24.3159C60.8511 27.7288 60.0401 31.0834 58.6033 34.1974C57.9665 35.6091 57.6413 37.1573 57.1808 38.6505C56.9027 39.5412 56.6793 39.7119 55.7203 39.7133H53.2036V42.3585C53.2036 43.0087 53.2143 43.6573 53.2036 44.306C53.1869 45.0482 52.8374 45.3896 52.079 45.4C51.1869 45.4104 50.2963 45.4 49.3601 45.4V48.8719L52.3404 49.2222C52.2735 49.8412 52.2097 50.4246 52.1383 51.0822L49.3206 50.8105C49.3206 52.0337 49.3085 53.1974 49.3404 54.3612C49.3404 54.4562 49.6246 54.6016 49.7963 54.6239C50.6185 54.7352 51.4468 54.8124 52.3419 54.9104C52.2781 55.5249 52.2173 56.1068 52.1474 56.7777L49.3571 56.5135V60.2734L52.3465 60.6252C52.2766 61.2605 52.2112 61.8424 52.1398 62.4911L49.3647 62.2031V65.9734L52.3358 66.3163L52.1307 68.1926C51.1747 68.0886 50.2568 68.0055 49.3434 67.8823C48.9225 67.8259 48.6991 67.9209 48.5486 68.3425C48.2158 69.2672 47.848 70.1846 47.4331 71.0752C47.2705 71.424 46.9377 71.6957 46.6823 72.0029H40.2994C40.044 71.6972 39.7021 71.427 39.5395 71.0782C38.965 69.7917 38.4295 68.486 37.9331 67.1609C37.7644 66.7156 37.506 66.579 37.0623 66.5479C36.2705 66.4915 35.4832 66.3876 34.6307 66.2955C34.7006 65.6647 34.7674 65.0679 34.8389 64.4208L37.6185 64.6968V60.9325L34.6367 60.5851C34.7082 59.9528 34.775 59.3694 34.848 58.7222L37.6215 58.9939V55.2265L34.6413 54.8851C34.7082 54.2587 34.772 53.6754 34.8434 53.0193L37.6337 53.2969V49.534L34.6367 49.1822C34.7082 48.5483 34.7735 47.965 34.8465 47.3193L37.6352 47.5998V45.3955C36.7705 45.3955 35.9225 45.3955 35.076 45.3955C34.0957 45.3955 33.7781 45.0898 33.7735 44.1353C33.7735 42.7251 33.7735 41.315 33.7644 39.9063C33.7518 39.8387 33.7335 39.7721 33.7097 39.7074H31.3769C30.2538 39.7074 30.0562 39.5961 29.7766 38.5377C29.0972 35.9683 28.0243 33.5339 27.1489 31.0312C26.2614 28.5174 25.882 25.8592 26.0319 23.2041C26.2629 19.1384 29.5456 15.6784 33.6626 15.1098C33.7879 15.0827 33.9109 15.046 34.0304 15H35.968C37.2872 15.3934 38.6033 15.8016 39.927 16.1786C41.6428 16.6655 43.4088 16.9119 45.1595 16.5408C47.1352 16.1222 49.0638 15.521 51.0136 15H52.9513ZM31.5714 37.7896C31.7477 37.7985 31.8601 37.8089 31.9726 37.8089C39.6261 37.8089 47.2791 37.8119 54.9316 37.8178C55.3115 37.8178 55.4544 37.6887 55.5562 37.3562C55.962 36.0202 56.2659 34.6487 56.8404 33.3914C58.2082 30.4019 58.9848 27.3055 59.0501 24.0398C59.0863 22.565 58.6428 21.1169 57.7835 19.9037C56.9242 18.6904 55.6932 17.7745 54.2674 17.2874C52.4118 16.658 50.6124 16.851 48.8313 17.5709C47.368 18.152 45.8147 18.4873 44.237 18.5625C41.8358 18.6976 39.5896 18.1172 37.3571 17.3141C33.0015 15.7422 28.231 18.8163 27.9756 23.3511C27.8237 25.8582 28.2477 28.3074 29.0699 30.6809C29.6884 32.4622 30.386 34.2256 31.0304 36.0024C31.2355 36.5769 31.386 37.1706 31.5714 37.7896ZM51.2416 39.743H35.7629V43.4658H51.2416V39.743ZM39.6413 55.4388V59.224L47.3374 60.0612V56.2745L39.6413 55.4388ZM39.6291 53.5255L47.3374 54.3582V50.5745L39.6291 49.7344V53.5255ZM47.3434 65.7656V61.973L39.6367 61.1433V64.9225L47.3434 65.7656ZM47.3434 45.4297H39.6535V47.8255L47.348 48.6582L47.3434 45.4297ZM39.9118 66.87C40.3465 67.9313 40.7462 68.9258 41.1687 69.91C41.2088 69.9647 41.2611 70.0098 41.3216 70.0419C41.3822 70.0741 41.4494 70.0924 41.5182 70.0955C42.9179 70.1074 44.3191 70.1029 45.7462 70.1029L46.734 67.6923C46.6698 67.6502 46.6003 67.6163 46.5273 67.5914C44.3647 67.3539 42.2036 67.1193 39.9118 66.87Z" fill="#0096D1"/>
<path d="M51.0134 15C49.0635 15.521 47.1319 16.1222 45.1593 16.5408C43.4085 16.9119 41.6425 16.6655 39.9267 16.1786C38.603 15.8016 37.2869 15.3934 35.9678 15H51.0134Z" fill="white"/>
<path d="M34.2492 20.559C32.3099 21.6515 31.658 23.3289 31.8419 25.4159H29.9513C29.4817 22.9043 31.006 19.9653 33.2947 18.9781L34.2492 20.559Z" fill="#0096D1"/>
</g>
<defs>
<clipPath id="clip0_102_520">
<rect width="35" height="57" fill="white" transform="translate(26 15)"/>
</clipPath>
</defs>
</svg>
