<svg width="88" height="88" viewBox="0 0 88 88" fill="none" xmlns="http://www.w3.org/2000/svg">
<circle cx="44" cy="44" r="44" fill="#0096D1" fill-opacity="0.1"/>
<g clip-path="url(#clip0_102_521)">
<path d="M15 34.5817C15.0726 33.9499 15.1316 33.3151 15.2178 32.6864C16.2567 25.1082 23.508 19.7639 31.0104 21.0682C31.9144 21.2509 32.8071 21.4856 33.6841 21.771C34.7805 22.0975 35.8663 22.4618 37.0292 22.829C36.9732 23.352 36.9112 23.9429 36.8371 24.6548C36.2171 24.5263 35.6273 24.4493 35.0648 24.2754C33.9653 23.9384 32.9007 23.4835 31.7922 23.1903C25.0278 21.4023 18.138 25.9486 17.1489 32.8783C16.724 35.8543 17.1686 38.7864 17.8839 41.6792C18.583 44.5044 19.7352 47.1977 21.2956 49.6549C21.9489 50.6887 22.0683 51.8525 22.3284 52.98C23.5383 58.214 24.7481 63.4525 25.8914 68.6985C26.3057 70.5954 27.9133 71.3616 29.1896 70.9551C30.1953 70.6346 30.8213 69.95 31.0043 68.9086C31.5034 66.0082 31.9813 63.1064 32.4697 60.2045C32.9582 57.3026 33.4073 54.4324 33.9336 51.5562C34.3449 49.3088 36.0795 47.9153 38.3192 47.9153C40.3985 47.9153 42.1724 49.4267 42.5535 51.6106C43.2234 55.4375 43.8435 59.2734 44.4847 63.1064C44.7977 64.985 45.0971 66.8667 45.4238 68.7439C45.6642 70.1314 46.6775 71.0442 47.9508 71.0624C49.2241 71.0805 50.1935 70.2447 50.5096 68.8603C51.8696 62.9235 53.2256 56.9862 54.5776 51.0484C54.6362 50.7341 54.7455 50.4314 54.9012 50.1521C56.4111 47.7556 57.5817 45.1616 58.3794 42.444C58.4096 42.3397 58.4565 42.2384 58.5094 42.0964L60.3499 42.5815C60.0988 43.3735 59.9264 44.1655 59.6043 44.8925C58.824 46.6472 58.0648 48.4216 57.1227 50.0887C56.4785 51.2283 56.235 52.4404 55.9537 53.6616C54.759 58.8608 53.59 64.0676 52.4059 69.2714C51.9734 71.1712 50.8377 72.406 48.9277 72.8881C48.841 72.9177 48.7571 72.9546 48.6767 72.9985H47.4291C47.3826 72.9653 47.3317 72.9388 47.2778 72.9199C45.3195 72.542 44.0582 71.3873 43.6136 69.4527C43.3021 68.0925 43.1236 66.705 42.8923 65.3281C42.1528 60.8997 41.4254 56.4698 40.6707 52.0429C40.4303 50.6403 39.4987 49.8468 38.2088 49.8468C36.9596 49.8468 36.0009 50.7098 35.7695 52.0837C34.8873 57.3877 34.0077 62.6917 33.1306 67.9957C32.9506 69.0719 32.8281 70.1631 32.1567 71.0956C31.3884 72.1702 30.3087 72.7143 29.0611 73H27.9269C25.7401 72.5315 24.4698 71.1969 23.9859 69.0084C22.8668 63.9361 21.7165 58.8659 20.5349 53.7976C20.2612 52.6172 20.1175 51.4081 19.4506 50.3214C17.0388 46.4044 15.5835 41.9749 15.2026 37.3914C15.1285 36.5299 15.0665 35.6684 15 34.8084V34.5817Z" fill="#0096D1"/>
<path d="M72.2419 44.1471C69.4638 41.3692 66.6918 38.5852 63.8987 35.8253C63.5206 35.452 63.445 35.1815 63.696 34.6812C65.0465 32.0589 65.4079 29.2643 64.9225 26.3776C63.7369 19.3299 57.2175 14.4617 50.0448 15.231C42.0192 16.0925 36.4994 23.8822 38.3429 31.7446C39.1316 35.1584 41.2129 38.1343 44.1499 40.0474C47.0868 41.9606 50.6511 42.6624 54.0947 42.0055C55.9956 41.6503 57.7317 40.9021 59.4572 39.7217C59.5572 39.9049 59.6747 40.078 59.808 40.2386C62.5543 42.9934 65.3051 45.7442 68.0604 48.4909C68.7531 49.1816 69.2037 49.1831 69.8903 48.503C70.6817 47.7191 71.4691 46.9311 72.2525 46.1391C73.0388 45.3502 73.0358 44.9421 72.2419 44.1471ZM51.604 40.3112C49.3122 40.3139 47.0711 39.6369 45.1645 38.366C43.2579 37.0951 41.7714 35.2874 40.8933 33.1718C40.0151 31.0561 39.7848 28.7276 40.2315 26.4811C40.6782 24.2345 41.7817 22.1709 43.4025 20.5515C45.0232 18.9321 47.0883 17.8298 49.3362 17.3839C51.5842 16.9381 53.9139 17.1689 56.0306 18.0471C58.1472 18.9253 59.9556 20.4114 61.2267 22.3172C62.4978 24.2231 63.1746 26.463 63.1713 28.7535C63.1633 31.8169 61.9419 34.7524 59.7743 36.9183C57.6066 39.0841 54.6691 40.304 51.604 40.3112ZM69.0313 46.588L60.9377 38.499L62.27 37.0299L70.4256 45.1794L69.0313 46.588Z" fill="#0096D1"/>
<path d="M25.8626 28.5452C23.0906 29.4777 21.8869 31.5075 21.8052 34.3354H19.9451C19.5141 31.1085 22.6158 26.8706 25.4982 26.7693C25.6176 27.3466 25.7371 27.93 25.8626 28.5452Z" fill="#0096D1"/>
<path d="M27.6304 26.6786H29.492V28.5497H27.6304V26.6786Z" fill="#0096D1"/>
<path d="M52.0883 23.1691C50.322 24.9299 48.5723 26.6831 46.8695 28.3774L48.037 29.5865L53.2316 24.3873L52.0883 23.1691ZM55.9386 26.1043L49.3164 32.7212C49.7035 33.1232 50.1315 33.5645 50.5065 33.9515L57.1711 27.3013L55.9386 26.1043ZM55.9386 26.1043L49.3164 32.7212C49.7035 33.1232 50.1315 33.5645 50.5065 33.9515L57.1711 27.3013L55.9386 26.1043ZM52.0883 23.1691C50.322 24.9299 48.5723 26.6831 46.8695 28.3774L48.037 29.5865L53.2316 24.3873L52.0883 23.1691ZM52.0883 23.1691C50.322 24.9299 48.5723 26.6831 46.8695 28.3774L48.037 29.5865L53.2316 24.3873L52.0883 23.1691ZM55.9386 26.1043L49.3164 32.7212C49.7035 33.1232 50.1315 33.5645 50.5065 33.9515L57.1711 27.3013L55.9386 26.1043ZM55.9386 26.1043L49.3164 32.7212C49.7035 33.1232 50.1315 33.5645 50.5065 33.9515L57.1711 27.3013L55.9386 26.1043ZM52.0883 23.1691C50.322 24.9299 48.5723 26.6831 46.8695 28.3774L48.037 29.5865L53.2316 24.3873L52.0883 23.1691ZM52.0883 23.1691C50.322 24.9299 48.5723 26.6831 46.8695 28.3774L48.037 29.5865L53.2316 24.3873L52.0883 23.1691ZM55.9386 26.1043L49.3164 32.7212C49.7035 33.1232 50.1315 33.5645 50.5065 33.9515L57.1711 27.3013L55.9386 26.1043ZM55.9386 26.1043L49.3164 32.7212C49.7035 33.1232 50.1315 33.5645 50.5065 33.9515L57.1711 27.3013L55.9386 26.1043ZM52.0883 23.1691C50.322 24.9299 48.5723 26.6831 46.8695 28.3774L48.037 29.5865L53.2316 24.3873L52.0883 23.1691ZM51.7617 18.9372C49.8539 18.9348 47.9881 19.4977 46.4003 20.5547C44.8124 21.6117 43.5737 23.1154 42.8406 24.8758C42.1076 26.6361 41.9131 28.5742 42.2817 30.445C42.6504 32.3158 43.5656 34.0354 44.9118 35.3865C46.258 36.7376 47.9747 37.6596 49.845 38.036C51.7153 38.4123 53.6553 38.2261 55.4197 37.5009C57.1842 36.7757 58.694 35.5441 59.7583 33.9616C60.8226 32.3792 61.3937 30.5169 61.3994 28.6102C61.4014 26.0516 60.3878 23.5967 58.581 21.7841C56.7742 19.9716 54.3217 18.9493 51.7617 18.9417V18.9372ZM51.7617 36.2956C50.2338 36.2971 48.7399 35.8455 47.469 34.9979C46.1981 34.1504 45.2074 32.945 44.6224 31.5344C44.0374 30.1237 43.8843 28.5714 44.1825 27.0738C44.4808 25.5761 45.217 24.2007 46.2979 23.1214C47.3788 22.0422 48.7558 21.3078 50.2545 21.0112C51.7533 20.7146 53.3064 20.8691 54.7172 21.4552C56.1281 22.0413 57.3332 23.0326 58.18 24.3035C59.0268 25.5745 59.4772 27.0681 59.4743 28.5951C59.4739 29.6074 59.2739 30.6098 58.8859 31.545C58.4978 32.4801 57.9292 33.3297 57.2126 34.0452C56.496 34.7607 55.6454 35.3281 54.7093 35.715C53.7733 36.1019 52.7701 36.3008 51.7572 36.3002L51.7617 36.2956ZM49.3209 32.7166C49.708 33.1187 50.136 33.56 50.511 33.9469L57.1756 27.2968L55.9431 26.1043L49.3209 32.7166ZM52.0929 23.1646C50.322 24.9299 48.5723 26.6831 46.8695 28.3774L48.037 29.5865L53.2316 24.3873L52.0929 23.1646ZM52.0929 23.1646C50.322 24.9299 48.5723 26.6831 46.8695 28.3774L48.037 29.5865L53.2316 24.3873L52.0929 23.1646ZM55.9431 26.0997L49.3209 32.7166C49.708 33.1187 50.136 33.56 50.511 33.9469L57.1756 27.2968L55.9431 26.0997ZM55.9431 26.0997L49.3209 32.7166C49.708 33.1187 50.136 33.56 50.511 33.9469L57.1756 27.2968L55.9431 26.0997ZM52.0883 23.1691C50.322 24.9299 48.5723 26.6831 46.8695 28.3774L48.037 29.5865L53.2316 24.3873L52.0883 23.1691ZM52.0883 23.1691C50.322 24.9299 48.5723 26.6831 46.8695 28.3774L48.037 29.5865L53.2316 24.3873L52.0883 23.1691ZM55.9386 26.1043L49.3164 32.7212C49.7035 33.1232 50.1315 33.5645 50.5065 33.9515L57.1711 27.3013L55.9386 26.1043ZM55.9386 26.1043L49.3164 32.7212C49.7035 33.1232 50.1315 33.5645 50.5065 33.9515L57.1711 27.3013L55.9386 26.1043ZM52.0883 23.1691C50.322 24.9299 48.5723 26.6831 46.8695 28.3774L48.037 29.5865L53.2316 24.3873L52.0883 23.1691Z" fill="white"/>
<path d="M51.7617 18.9417C49.8539 18.9393 47.9881 19.5022 46.4003 20.5592C44.8124 21.6162 43.5737 23.1199 42.8406 24.8803C42.1076 26.6407 41.9131 28.5787 42.2817 30.4495C42.6504 32.3203 43.5656 34.0399 44.9118 35.391C46.258 36.7422 47.9747 37.6641 49.845 38.0405C51.7153 38.4168 53.6553 38.2306 55.4197 37.5055C57.1842 36.7803 58.694 35.5486 59.7583 33.9661C60.8226 32.3837 61.3937 30.5214 61.3994 28.6147C61.4026 26.0553 60.3895 23.5993 58.5826 21.7857C56.7756 19.9722 54.3225 18.9493 51.7617 18.9417ZM51.7617 36.3002C50.2338 36.3017 48.7399 35.85 47.469 35.0024C46.1981 34.1549 45.2074 32.9495 44.6224 31.5389C44.0374 30.1283 43.8843 28.5759 44.1825 27.0783C44.4808 25.5807 45.217 24.2052 46.2979 23.126C47.3788 22.0467 48.7558 21.3123 50.2545 21.0157C51.7533 20.7191 53.3064 20.8736 54.7172 21.4597C56.1281 22.0458 57.3332 23.0371 58.18 24.3081C59.0268 25.5791 59.4772 27.0726 59.4743 28.5996C59.4722 30.6434 58.6582 32.6027 57.211 34.0468C55.7639 35.4908 53.8021 36.3014 51.7572 36.3002H51.7617Z" fill="#0096D1"/>
<path d="M57.1711 27.2968L50.5066 33.9469C50.1315 33.56 49.7035 33.1187 49.3164 32.7166L55.9386 26.0997L57.1711 27.2968Z" fill="#0096D1"/>
<path d="M53.2317 24.3828L48.0371 29.582L46.8696 28.3729C48.5724 26.6831 50.3221 24.9299 52.0885 23.1691L53.2317 24.3828Z" fill="#0096D1"/>
</g>
<defs>
<clipPath id="clip0_102_521">
<rect width="58" height="58" fill="white" transform="translate(15 15)"/>
</clipPath>
</defs>
</svg>
