<svg width="21" height="21" viewBox="0 0 21 21" fill="none" xmlns="http://www.w3.org/2000/svg">
<path d="M2.88069 1.3315C2.39077 0.845106 1.59932 0.847962 1.11293 1.33788C0.626542 1.82779 0.629398 2.61924 1.11931 3.10563L2.88069 1.3315ZM18.0223 19.8871C18.5122 20.3735 19.3037 20.3706 19.7901 19.8807C20.2764 19.3908 20.2736 18.5993 19.7837 18.1129L18.0223 19.8871ZM19.8807 2.88707C20.3706 2.40068 20.3735 1.60923 19.8871 1.11931C19.4007 0.629398 18.6092 0.626542 18.1193 1.11293L19.8807 2.88707ZM1.21633 17.8944C0.726412 18.3808 0.723556 19.1722 1.20995 19.6621C1.69634 20.152 2.48779 20.1549 2.9777 19.6685L1.21633 17.8944ZM1.11931 3.10563L18.0223 19.8871L19.7837 18.1129L2.88069 1.3315L1.11931 3.10563ZM18.1193 1.11293L1.21633 17.8944L2.9777 19.6685L19.8807 2.88707L18.1193 1.11293Z" fill="#282828"/>
</svg>
