<svg width="29" height="21" viewBox="0 0 29 21" fill="none" xmlns="http://www.w3.org/2000/svg">
<path d="M27 3.25C27.6904 3.25 28.25 2.69036 28.25 2C28.25 1.30964 27.6904 0.75 27 0.75V3.25ZM5.16901 0.75C4.47866 0.75 3.91901 1.30964 3.91901 2C3.91901 2.69036 4.47866 3.25 5.16901 3.25V0.75ZM27 11.5071C27.6904 11.5071 28.25 10.9475 28.25 10.2571C28.25 9.56679 27.6904 9.00714 27 9.00714V11.5071ZM2 9.00714C1.30964 9.00714 0.749999 9.56679 0.749999 10.2571C0.749999 10.9475 1.30964 11.5071 2 11.5071V9.00714ZM27 20.25C27.6904 20.25 28.25 19.6904 28.25 19C28.25 18.3096 27.6904 17.75 27 17.75V20.25ZM10.8028 17.75C10.1125 17.75 9.55282 18.3096 9.55282 19C9.55282 19.6904 10.1125 20.25 10.8028 20.25V17.75ZM27 0.75H5.16901V3.25H27V0.75ZM27 9.00714H2V11.5071H27V9.00714ZM27 17.75H10.8028V20.25H27V17.75Z" fill="#282828"/>
</svg>
