<svg width="48" height="49" viewBox="0 0 48 49" fill="none" xmlns="http://www.w3.org/2000/svg">
<g filter="url(#filter0_d_18_2740)">
<circle cx="23.9384" cy="22.9384" r="22.9384" fill="white"/>
</g>
<path fill-rule="evenodd" clip-rule="evenodd" d="M23.6017 37.0792C20.5444 35.2917 17.7003 33.1879 15.1201 30.8055C13.3062 29.0898 11.9253 26.9982 11.0831 24.6908C9.56765 20.2149 11.3378 15.0907 16.2918 13.5743C18.8954 12.778 21.7389 13.2331 23.9328 14.7972C26.1276 13.235 28.9701 12.7801 31.5739 13.5743C36.5279 15.0907 38.3108 20.2149 36.7953 24.6908C35.9531 26.9982 34.5722 29.0898 32.7583 30.8055C30.1782 33.1879 27.334 35.2917 24.2767 37.0792L23.9456 37.2749L23.6017 37.0792Z" stroke="#200E32" stroke-width="1.75" stroke-linecap="round" stroke-linejoin="round"/>
<path d="M29.2051 18.6128C30.7056 19.0682 31.7717 20.3479 31.9049 21.8536" stroke="#FFCFA0" stroke-width="1.75" stroke-linecap="round" stroke-linejoin="round"/>
<defs>
<filter id="filter0_d_18_2740" x="0" y="0" width="47.8767" height="48.8768" filterUnits="userSpaceOnUse" color-interpolation-filters="sRGB">
<feFlood flood-opacity="0" result="BackgroundImageFix"/>
<feColorMatrix in="SourceAlpha" type="matrix" values="0 0 0 0 0 0 0 0 0 0 0 0 0 0 0 0 0 0 127 0" result="hardAlpha"/>
<feMorphology radius="1" operator="erode" in="SourceAlpha" result="effect1_dropShadow_18_2740"/>
<feOffset dy="2"/>
<feGaussianBlur stdDeviation="1"/>
<feComposite in2="hardAlpha" operator="out"/>
<feColorMatrix type="matrix" values="0 0 0 0 0 0 0 0 0 0 0 0 0 0 0 0 0 0 0.1 0"/>
<feBlend mode="normal" in2="BackgroundImageFix" result="effect1_dropShadow_18_2740"/>
<feBlend mode="normal" in="SourceGraphic" in2="effect1_dropShadow_18_2740" result="shape"/>
</filter>
</defs>
</svg>
