<svg width="22" height="24" viewBox="0 0 22 24" fill="none" xmlns="http://www.w3.org/2000/svg">
<path d="M11.0049 6.16025C7.88171 6.16025 5.36252 8.76533 5.36252 11.995C5.36252 15.2247 7.88171 17.8298 11.0049 17.8298C14.1281 17.8298 16.6473 15.2247 16.6473 11.995C16.6473 8.76533 14.1281 6.16025 11.0049 6.16025ZM11.0049 15.7884C8.98662 15.7884 7.33662 14.0872 7.33662 11.995C7.33662 9.90283 8.98171 8.20166 11.0049 8.20166C13.0281 8.20166 14.6732 9.90283 14.6732 11.995C14.6732 14.0872 13.0232 15.7884 11.0049 15.7884ZM18.1942 5.92158C18.1942 6.67822 17.6049 7.28252 16.8781 7.28252C16.1464 7.28252 15.5621 6.67314 15.5621 5.92158C15.5621 5.17002 16.1514 4.56064 16.8781 4.56064C17.6049 4.56064 18.1942 5.17002 18.1942 5.92158ZM21.9313 7.30283C21.8478 5.47978 21.4451 3.86494 20.1536 2.53447C18.867 1.204 17.3054 0.787598 15.5424 0.696191C13.7255 0.589551 8.27948 0.589551 6.46252 0.696191C4.70448 0.782519 3.14288 1.19893 1.85136 2.52939C0.559842 3.85986 0.162074 5.47471 0.0736816 7.29775C-0.0294433 9.17666 -0.0294433 14.8083 0.0736816 16.6872C0.157164 18.5102 0.559842 20.1251 1.85136 21.4556C3.14288 22.786 4.69957 23.2024 6.46252 23.2938C8.27948 23.4005 13.7255 23.4005 15.5424 23.2938C17.3054 23.2075 18.867 22.7911 20.1536 21.4556C21.4402 20.1251 21.8429 18.5102 21.9313 16.6872C22.0344 14.8083 22.0344 9.18174 21.9313 7.30283ZM19.5839 18.7032C19.2009 19.6985 18.4594 20.4653 17.492 20.8665C16.0433 21.4606 12.6058 21.3235 11.0049 21.3235C9.40403 21.3235 5.96162 21.4556 4.51788 20.8665C3.55538 20.4704 2.81386 19.7036 2.42591 18.7032C1.85136 17.2052 1.98395 13.6505 1.98395 11.995C1.98395 10.3395 1.85627 6.77978 2.42591 5.28682C2.80895 4.2915 3.55047 3.52471 4.51788 3.12353C5.96654 2.52939 9.40403 2.6665 11.0049 2.6665C12.6058 2.6665 16.0482 2.53447 17.492 3.12353C18.4545 3.51963 19.196 4.28642 19.5839 5.28682C20.1585 6.78486 20.0259 10.3395 20.0259 11.995C20.0259 13.6505 20.1585 17.2102 19.5839 18.7032Z" fill="#222222"/>
</svg>
